<svg width="36" height="36" viewBox="0 0 36 36" fill="none" xmlns="http://www.w3.org/2000/svg">
<circle cx="18" cy="18" r="18" fill="#333333"/>
<circle cx="18" cy="9" r="5" fill="white"/>
<path d="M29.4315 27.9384C29.4315 26.3999 29.1284 24.8764 28.5397 23.455C27.9509 22.0336 27.0879 20.7421 26 19.6541C24.9121 18.5662 23.6206 17.7033 22.1991 17.1145C20.7777 16.5257 19.0878 18.3993 17.5493 18.3993C16.0107 18.3993 14.6537 16.5257 13.2323 17.1145C11.8109 17.7033 10.5194 18.5662 9.43146 19.6541C8.34355 20.7421 7.48058 22.0336 6.89181 23.455C6.30304 24.8764 6 26.3999 6 27.9384L29.4315 27.9384Z" fill="white"/>
</svg>
