<svg width="400" height="400" viewBox="0 0 400 400" fill="none" xmlns="http://www.w3.org/2000/svg">
<path d="M390 200C390 304.934 304.934 390 200 390C95.0659 390 10 304.934 10 200C10 95.0659 95.0659 10 200 10C304.934 10 390 95.0659 390 200Z" fill="white" stroke="#333333" stroke-width="20"/>
<rect x="109" y="151" width="180" height="134" fill="#333333" stroke="#333333" stroke-width="4"/>
<path d="M165.5 153C165.5 144.38 168.924 136.114 175.019 130.019C181.114 123.924 189.38 120.5 198 120.5C206.62 120.5 214.886 123.924 220.981 130.019C227.076 136.114 230.5 144.38 230.5 153" stroke="#333333" stroke-width="15"/>
<path d="M291 163L199.349 193L106 163" stroke="white" stroke-width="10"/>
</svg>
