<svg width="44" height="38" viewBox="0 0 44 38" fill="none" xmlns="http://www.w3.org/2000/svg">
<path d="M2 6C2 3.79086 3.79086 2 6 2V2C9.31371 2 12 4.68629 12 8V38H6C3.79086 38 2 36.2091 2 34V6Z" fill="#333333"/>
<path d="M43 6C43 3.79086 41.2091 2 39 2V2C35.6863 2 33 4.68629 33 8V38H39C41.2091 38 43 36.2091 43 34V6Z" fill="#333333"/>
<path d="M3.30219 3.13132C4.76822 1.47873 7.29636 1.32749 8.94895 2.79351L29.6838 21.1875L24.3749 27.1721L3.64 8.77808C1.98741 7.31206 1.83617 4.78392 3.30219 3.13132V3.13132Z" fill="#333333"/>
<path d="M40.9999 2.8609C42.5962 4.30037 42.7233 6.76136 41.2839 8.35769L24.3122 27.1788L18.5314 21.966L35.5031 3.14492C36.9425 1.54859 39.4035 1.42144 40.9999 2.8609V2.8609Z" fill="#333333"/>
</svg>
