<svg width="91" height="68" viewBox="0 0 91 68" fill="none" xmlns="http://www.w3.org/2000/svg">
<path d="M14.1649 8.58599C14.6246 8.23188 15.3631 8.24035 15.8145 8.6049L76.3925 57.5275C77.2201 58.1958 77.2078 59.2639 76.3652 59.9131V59.9131C72.1518 63.1591 65.3819 63.0815 61.244 59.7398L14.0158 21.5984C9.50178 17.9529 9.56857 12.1271 14.1649 8.58599V8.58599Z" fill="#333333"/>
<path d="M16.8402 5.29347C18.8928 3.44622 22.3981 3.22174 24.6696 4.79209L31.1376 9.26367C34.7719 11.7762 35.0558 16.209 31.7716 19.1646L22.6768 27.3496L12.9185 20.6033C8.82991 17.7767 8.51056 12.7898 12.2052 9.46476L16.8402 5.29347Z" fill="#333333"/>
<path d="M82.0183 55.7092C84.2173 54.039 84.2682 51.2664 82.132 49.5165L75.8959 44.4084C72.478 41.6086 66.8549 41.5054 63.3365 44.1778L53.2693 51.8244L62.5998 59.4673C66.445 62.617 72.7709 62.7331 76.7291 59.7267L82.0183 55.7092Z" fill="#333333"/>
</svg>
