<svg width="268" height="268" viewBox="0 0 268 268" fill="none" xmlns="http://www.w3.org/2000/svg">
<path d="M96.8902 10.4175C107.576 7.21316 118.846 5.357 130.5 5.04656V127.5H68.5641C69.4309 86.9061 79.086 46.9581 96.8902 10.4175ZM140.5 127.5V5.16092C151.944 5.72884 162.996 7.78813 173.465 11.1484C191.044 47.4944 200.575 87.1807 201.436 127.5H140.5ZM68.5285 137.5H130.5V262.953C119.054 262.649 107.98 260.853 97.4639 257.753C79.0015 220.304 69.1224 179.223 68.5285 137.5ZM140.5 262.839V137.5H201.472C200.883 178.865 191.167 219.606 173 256.807L173.239 256.924C162.837 260.241 151.862 262.275 140.5 262.839ZM262.953 137.5C261.592 188.629 230.48 232.341 186.298 251.959C202.356 215.929 210.93 176.987 211.473 137.5H262.953ZM262.839 127.5H211.438C210.647 89.1571 202.285 51.3628 186.85 16.2881C229.875 35.6351 260.377 77.8778 262.839 127.5ZM58.5275 137.5C59.0757 177.384 67.8176 216.706 84.1814 253.028C38.6876 233.965 6.4338 189.58 5.04656 137.5H58.5275ZM58.5619 127.5H5.16092C7.67052 76.9298 39.3009 34.0237 83.6294 15.2044C67.8893 50.5803 59.3607 88.7582 58.5619 127.5Z" stroke="#333333" stroke-width="10"/>
</svg>
